# xmcd CD database file
#
# Track frame offsets:
#	150
#	21898
#	41655
#	62979
#	84777
#	111797
#	139101
#	163752
#	187559
#	217950
#
# Disc length: 3150 seconds
#
# Revision: 2
# Processed by: cddbd v1.5.2PL0 Copyright (c) Steve Scherf et al.
# Submitted via: CDex 1.70beta2
#
DISCID=7c0c4c0a
DTITLE=Justin Rutledge - The Devil On A Bench In Stanley Park
DYEAR=2006
DGENRE=Country
TTITLE0=Robin's Tune
TTITLE1=I'm Your Man, You're My Radio
TTITLE2=Does It Make You Rain
TTITLE3=Come Summertime
TTITLE4=Backseat Honeymoon/Blue Is What I Do
TTITLE5=The Suffering Of Pepe O'Malley Part 4
TTITLE6=Emily Returns
TTITLE7=I Am With Her Where The Avalanche Begins
TTITLE8=This Is War
TTITLE9=I'm Gonna Die
EXTD=YEAR: 2006
EXTT0=
EXTT1=
EXTT2=
EXTT3=
EXTT4=
EXTT5=
EXTT6=
EXTT7=
EXTT8=
EXTT9=
PLAYORDER=
